<?xml version="1.0" encoding="UTF-8" standalone="no"?>
<!-- Created with Inkscape (http://www.inkscape.org/) -->

<svg
   width="200mm"
   height="200mm"
   viewBox="0 0 200 200"
   version="1.1"
   id="svg1"
   inkscape:version="1.4 (86a8ad7, 2024-10-11)"
   sodipodi:docname="logo.svg"
   xmlns:inkscape="http://www.inkscape.org/namespaces/inkscape"
   xmlns:sodipodi="http://sodipodi.sourceforge.net/DTD/sodipodi-0.dtd"
   xmlns="http://www.w3.org/2000/svg"
   xmlns:svg="http://www.w3.org/2000/svg">
  <sodipodi:namedview
     id="namedview1"
     pagecolor="#ffffff"
     bordercolor="#000000"
     borderopacity="0.25"
     inkscape:showpageshadow="2"
     inkscape:pageopacity="0.0"
     inkscape:pagecheckerboard="0"
     inkscape:deskcolor="#d1d1d1"
     inkscape:document-units="mm"
     inkscape:zoom="0.72604517"
     inkscape:cx="397.3582"
     inkscape:cy="561.25984"
     inkscape:window-width="1920"
     inkscape:window-height="1017"
     inkscape:window-x="-8"
     inkscape:window-y="-8"
     inkscape:window-maximized="1"
     inkscape:current-layer="layer1" />
  <defs
     id="defs1" />
  <g
     inkscape:label="Layer 1"
     inkscape:groupmode="layer"
     id="layer1">
    <circle
       id="path1"
       style="fill:#24221c;stroke:#000000;stroke-width:0.264583"
       cx="12.754601"
       cy="27.331289"
       r="0.12135091" />
    <path
       style="fill:#24221c;stroke-width:0.264583"
       id="path5"
       d="m 73.678755,23.379858 c -3.247392,-0.15023 -6.517221,-0.339915 -9.735933,0.256154 -1.312648,0.243087 -2.602024,0.598342 -3.903038,0.897513 -6.310286,1.733704 -12.327451,4.366767 -17.921523,7.765152 -3.837948,2.33154 -7.501747,4.955791 -10.568151,8.266186 -1.054026,1.137896 -1.841217,2.496608 -2.761827,3.74491 -0.305401,1.089684 -0.939575,2.137622 -0.916202,3.269051 0.08761,4.2413 4.651462,6.205712 7.966858,7.327704 4.580086,1.549988 8.624959,2.183162 13.390674,3.140001 7.162543,1.145855 14.359545,2.116146 21.600233,2.600312 1.230411,0.08227 2.693223,0.858303 3.696767,0.141655 0.640559,-0.457435 -1.080315,-1.364546 -1.86263,-1.451448 -1.923296,-0.213646 -3.849306,0.4021 -5.773962,0.603149 -12.122198,2.287048 -24.579379,4.961406 -35.853047,10.141384 -5.97272,2.744322 -13.868955,7.30771 -18.120836,12.746294 -1.671741,2.138325 -2.376066,4.880874 -3.5640992,7.321312 0.6442279,2.913065 0.5732794,6.083445 1.9326832,8.739192 3.764578,7.354521 11.755457,12.644911 18.630456,16.362051 8.246303,4.45857 18.789549,7.99281 27.942568,10.02552 3.853778,0.85586 7.809963,1.15793 11.714946,1.7369 4.352009,-0.0799 9.964962,0.54008 14.105959,-1.78834 0.921826,-0.51833 1.625396,-1.55724 1.82391,-2.596 0.201814,-1.05602 -0.484852,-2.09489 -0.727276,-3.14234 -0.05726,-0.17106 -2.476397,0.63871 -2.419138,0.80977 v 0 c 0.315124,0.33029 0.959659,0.53458 0.945369,0.99085 -0.01574,0.50296 -0.545375,0.93104 -1.011502,1.12061 -3.088129,1.25594 -8.287795,0.29129 -10.864683,0.12617 -3.666636,-0.70267 -7.374885,-1.21515 -10.999904,-2.108 -8.562893,-2.10906 -19.020874,-5.52814 -26.986261,-9.24484 -6.754268,-3.15159 -13.936623,-6.77242 -18.319065,-13.174471 -1.268672,-1.85333 -1.487525,-4.23848 -2.231287,-6.357718 1.093696,-1.97095 1.768196,-4.241932 3.281087,-5.912856 4.167437,-4.602752 12.364392,-8.764886 17.666701,-11.108996 11.115447,-4.914054 22.958443,-7.806574 34.484875,-11.525988 1.954165,-0.613879 4.183354,-0.668565 5.862495,-1.841641 0.945541,-0.660572 1.899224,-2.181365 1.340146,-3.190242 C 74.945427,57.024552 73.193962,57.541022 72.015971,57.346833 70.03145,57.019687 68.033949,56.776595 66.040991,56.505535 61.209731,55.84844 55.541349,55.128487 50.71969,54.508219 48.27811,54.13353 45.832749,53.782711 43.394955,53.38415 c -3.565387,-0.582911 -6.390447,-0.87772 -9.657644,-2.224471 -0.872098,-0.359484 -3.227959,-1.376746 -3.23451,-2.873586 -0.0036,-0.823458 0.590699,-1.537351 0.886048,-2.306027 0.928478,-1.039804 1.768109,-2.166363 2.785435,-3.119419 3.16357,-2.963711 6.647071,-5.311142 10.340689,-7.569125 5.322038,-3.253468 10.912811,-6.150954 16.846116,-8.116404 1.189114,-0.344479 2.363621,-0.744116 3.567345,-1.033442 2.709037,-0.65114 5.459704,-0.554234 8.218276,-0.689633 0.146526,0.03762 0.678572,-2.034564 0.532045,-2.072185 z" />
    <path
       style="fill:#24221c;stroke-width:0.264583"
       id="path6"
       d="m 107.4879,60.27726 c -1.0213,12.69904 -1.05172,25.45148 -1.60372,38.17397 -0.21403,4.93311 -0.50405,9.86262 -0.75607,14.79394 -0.90787,14.5396 -2.19757,29.06037 -4.639,43.43137 -1.004122,5.91054 -2.32875,12.53576 -4.093002,18.35623 -0.425498,1.40376 -1.040167,2.74307 -1.560251,4.11461 -2.468234,2.19493 0.23287,0.20406 0.272897,0.11397 0.260085,-0.58539 0.06299,-1.27957 0.09448,-1.91936 -0.01294,-0.18345 -2.607384,-2.6e-4 -2.594438,0.1831 v 0 c 0.167267,0.97515 -0.09712,2.13794 0.501801,2.92547 2.017191,2.65241 3.03435,1.03594 4.654286,-0.1428 0.826936,-1.42383 1.81611,-2.76507 2.480817,-4.27149 2.52027,-5.71168 4.29771,-12.65443 5.54122,-18.64524 3.00416,-14.47297 4.3728,-29.2353 5.01265,-43.98323 0.0861,-4.97138 0.24625,-9.94204 0.25824,-14.914152 0.0103,-4.287293 -0.0958,-8.574255 -0.19129,-12.860497 -0.1884,-8.456673 -0.50854,-16.921395 -1.16178,-25.355891 0,-0.156755 -2.21684,-0.156755 -2.21684,0 z" />
    <path
       style="fill:#24221c;stroke-width:0.264583"
       id="path7"
       d="m 108.40523,123.56227 c 5.91014,0.84395 11.78413,1.919 17.67722,2.86782 6.42465,1.0344 10.12374,1.52842 16.56108,2.44148 8.8722,1.16083 4.76283,0.64357 12.32602,1.56843 0.21433,0.089 1.4725,-2.94199 1.25818,-3.03096 v 0 c -7.37844,-1.62832 -3.34744,-0.82188 -12.11117,-2.32657 -2.75944,-0.3987 -5.51435,-0.83006 -8.27831,-1.19611 -4.91767,-0.65129 -10.77457,-1.30002 -15.75437,-1.76275 -1.87592,-0.17432 -6.67966,-0.55184 -8.90247,-0.64851 -0.69844,-0.0304 -1.39811,-0.0158 -2.09716,-0.0237 -0.14926,-0.048 -0.82828,2.06285 -0.67902,2.11087 z" />
    <path
       style="fill:#24221c;stroke-width:0.264583"
       id="path8"
       d="m 166.72749,69.599997 c -2.2495,8.314812 -4.6463,16.588994 -6.95402,24.887618 -1.06238,3.820359 -2.16794,7.629475 -3.15388,11.470265 -1.12374,4.37765 -2.11624,8.78795 -3.17436,13.18192 -2.81748,12.70859 -4.79532,25.60516 -5.97991,38.56771 -0.44778,4.8999 -0.89704,11.04705 -0.58622,16.11917 0.068,1.11028 0.36434,2.19469 0.54651,3.29204 0.3629,0.34682 0.60206,1.16365 1.08869,1.04047 2.55148,-0.64588 2.74387,-2.44725 3.2433,-4.46023 0.46034,-1.85539 0.74365,-3.72969 0.86121,-5.63374 0.0201,-0.15989 -2.24106,-0.44431 -2.26117,-0.28442 v 0 c -0.43756,1.78504 -0.79344,3.58147 -1.1586,5.38271 -0.15619,0.77042 -0.65678,1.5454 -0.47448,2.31006 0.16515,0.69272 1.33689,0.77939 1.4816,1.5392 0.86808,-10.14568 2.24744,-20.26079 3.79179,-30.32264 0.66501,-4.33278 1.33628,-8.66531 2.09834,-12.98208 0.80112,-4.53802 1.72715,-9.0531 2.59073,-13.57965 0.92113,-4.37806 1.78584,-8.76836 2.7634,-13.13416 0.86684,-3.87131 1.87753,-7.7092 2.7693,-11.574842 1.95265,-8.464425 3.78545,-16.980455 4.79478,-25.617402 0.0143,-0.161716 -2.27273,-0.363715 -2.28701,-0.201999 z" />
  </g>
</svg>
